<svg xmlns="http://www.w3.org/2000/svg" viewBox="0 0 162 162"><defs><style>.cls-1{fill:none;}.cls-2{fill:#fd7100;}</style></defs><title>Zasób 31</title><g id="Warstwa_2" data-name="Warstwa 2"><g id="Warstwa_1-2" data-name="Warstwa 1"><rect class="cls-1" width="162" height="162"/><g id="Group_6" data-name="Group 6"><path d="M121.55,13.93a39.56,39.56,0,0,1-7,12.53A3.36,3.36,0,0,1,110,27L88.11,10.6a1.69,1.69,0,0,1-.56-1.95l2.83-7.49A.84.84,0,0,1,91.47.67l29.09,11.11A1.69,1.69,0,0,1,121.55,13.93Z"/><path d="M108.24,31.78c-3.17,6.62-5.85,8.66-9.45,11.6l-1.45,1.19c-1.63,2.9-4,7.7-7,10.17-1.64,1.35-3.45,2-5.39,1.26a3.84,3.84,0,0,1-1.77-1.26c-.91-1.22-1-3.23.23-6.55a47.66,47.66,0,0,1,2.2-4.81c2-3.88,4.25-7.66,4.45-8a35.48,35.48,0,0,0-8,8H67.8a21.51,21.51,0,0,1,1-4.36c2.46-6.5,12.3-16.9,18.28-22.84L107,31A7.53,7.53,0,0,0,108.24,31.78Z"/><path d="M79.47,66.93H68.8V54.74H79.17C79.16,58.61,79.46,63,79.47,66.93Z"/></g><g id="Inteligentny_obiekt_wektorowy-3" data-name="Inteligentny obiekt wektorowy-3"><path class="cls-2" d="M126.5,66.93v94.45h-91V66.93h22V49.06l5.64-5.68H85.57a47.66,47.66,0,0,0-2.2,4.81c-1.26,3.32-1.14,5.33-.23,6.55H68.8V66.93H93.2V54.74H90.3c3-2.47,5.41-7.27,7-10.17l1.45-1.19h0l5.64,5.68V66.93Z"/></g></g></g></svg>