<svg xmlns="http://www.w3.org/2000/svg" viewBox="0 0 68.74 68.74"><defs><style>.cls-1{fill:#fd7100;}</style></defs><g id="Warstwa_2" data-name="Warstwa 2"><g id="Warstwa_1-2" data-name="Warstwa 1"><path class="cls-1" d="M68.74,12.89v43A12.89,12.89,0,0,1,55.85,68.74h-43A12.89,12.89,0,0,1,0,55.85v-43A12.89,12.89,0,0,1,12.89,0h43A12.89,12.89,0,0,1,68.74,12.89ZM53,17.19H15.75a4.29,4.29,0,0,0-4.29,4.29c0,2.42,2.5,5.06,4.38,6.31,3.94,2.64,8,5.1,12,7.7,1.7,1.12,4.52,3.18,6.58,3.18s4.88-2.06,6.58-3.18c4-2.6,8-5.15,11.95-7.79,1.74-1.16,4.39-3.85,4.39-6.08A4.3,4.3,0,0,0,53,17.19Zm4.3,10.56a13.49,13.49,0,0,1-2.87,2.46c-4.21,2.77-8.55,5.37-12.71,8.23-2.1,1.48-4.7,3.09-7.34,3.09S29.13,39.92,27,38.44c-4.16-2.86-8.55-5.41-12.71-8.28-1-.67-1.83-1.65-2.86-2.41V47.26a4.3,4.3,0,0,0,4.29,4.3H53a4.31,4.31,0,0,0,4.3-4.3Z"/></g></g></svg>