<svg xmlns="http://www.w3.org/2000/svg" viewBox="0 0 98.3 98.3"><defs><style>.cls-1{fill:#fd7100;}.cls-2{fill:#fff;}</style></defs><title>Zasób 71</title><g id="Warstwa_2" data-name="Warstwa 2"><g id="Warstwa_1-2" data-name="Warstwa 1"><path class="cls-1" d="M87.76,0H10.53A10.54,10.54,0,0,0,0,10.53V87.76A10.54,10.54,0,0,0,10.53,98.3H87.76A10.54,10.54,0,0,0,98.3,87.76V10.53A10.54,10.54,0,0,0,87.76,0ZM84.25,72A5.25,5.25,0,0,1,79,77.23H19.31A5.26,5.26,0,0,1,14,72V40.76C17.11,43.13,21.36,46.3,35,56.17c3.11,2.27,8.34,7,14.2,7s11.19-4.84,14.2-7c13.59-9.86,17.84-13,20.9-15.4Zm0-40.12c-5.34,4.16-5.14,4.2-25,18.64-2.3,1.68-6.88,5.73-10.06,5.68s-7.76-4-10.07-5.68C19.18,36.05,19.38,36,14,31.85V26.33a5.27,5.27,0,0,1,5.27-5.27H79a5.26,5.26,0,0,1,5.26,5.27Z"/><path class="cls-2" d="M84.25,40.76V72A5.25,5.25,0,0,1,79,77.23H19.31A5.26,5.26,0,0,1,14,72V40.76C17.11,43.13,21.36,46.3,35,56.17c3.11,2.27,8.34,7,14.2,7s11.19-4.84,14.2-7C76.94,46.3,81.19,43.13,84.25,40.76Z"/><path class="cls-2" d="M84.25,26.33v5.52c-5.34,4.16-5.14,4.2-25,18.64-2.3,1.68-6.88,5.73-10.06,5.68s-7.76-4-10.07-5.68C19.18,36.05,19.38,36,14,31.85V26.33a5.27,5.27,0,0,1,5.27-5.27H79A5.26,5.26,0,0,1,84.25,26.33Z"/></g></g></svg>