<svg xmlns="http://www.w3.org/2000/svg" viewBox="0 0 162 162"><defs><style>.cls-1{fill:none;}.cls-2{fill:#fd7100;}</style></defs><title>Zasób 21</title><g id="Warstwa_2" data-name="Warstwa 2"><g id="Warstwa_1-2" data-name="Warstwa 1"><rect class="cls-1" width="162" height="162"/><g id="Group_3-2" data-name="Group 3-2"><g id="Group_16" data-name="Group 16"><g id="Group_15" data-name="Group 15"><path id="Path_36" data-name="Path 36" class="cls-2" d="M118.34,32.46v97.08c-.14.7-.32,1.4-.42,2.11a12.86,12.86,0,0,1-10.54,10.44c-.67.09-1.33.27-2,.41H56.62c-.67-.14-1.33-.32-2-.41a12.83,12.83,0,0,1-10.55-10.55c-.09-.67-.27-1.33-.41-2V32.46c.14-.67.32-1.33.41-2A12.84,12.84,0,0,1,54.51,19.92c.71-.1,1.4-.28,2.11-.42h48.76c.67.14,1.33.32,2,.4a12.87,12.87,0,0,1,10.54,10.45C118,31.06,118.2,31.76,118.34,32.46ZM109.61,81V32.91c0-3-1.66-4.67-4.66-4.68-1.17,0-2.34-.05-3.51,0a1.17,1.17,0,0,0-.87.67c-.5,2.63-2.62,3.68-5,3.68q-14.6,0-29.2,0c-2.34,0-4.44-1.06-4.9-3.63a.81.81,0,0,0-.84-.78l-.13,0c-1.17,0-2.35,0-3.52,0-3,0-4.6,1.66-4.6,4.62v96.29c0,2.94,1.68,4.63,4.6,4.64h48a6.22,6.22,0,0,0,1.61-.18c2.07-.63,3-2.12,3-4.62q0-24,0-48Z"/></g></g><g id="Group_17" data-name="Group 17"><path id="Path_37" data-name="Path 37" d="M105,76.23a2.17,2.17,0,0,1-2.17-2.17h0V63.76a2.08,2.08,0,0,0-2.08-2.08H90.42a2.18,2.18,0,0,1,0-4.35h10.3a6.43,6.43,0,0,1,6.43,6.43v10.3A2.17,2.17,0,0,1,105,76.23Z"/></g><g id="Group_18" data-name="Group 18"><path id="Path_38" data-name="Path 38" d="M57.16,76.23A2.18,2.18,0,0,1,55,74.06h0V63.76a6.44,6.44,0,0,1,6.43-6.43h10.3a2.18,2.18,0,0,1,0,4.35H61.41a2.08,2.08,0,0,0-2.08,2.08v10.3a2.17,2.17,0,0,1-2.17,2.17Z"/></g><g id="Group_19" data-name="Group 19"><path id="Path_39" data-name="Path 39" d="M100.73,109.5H90.42a2.18,2.18,0,0,1,0-4.35h10.3a2.08,2.08,0,0,0,2.08-2.08V92.77a2.18,2.18,0,0,1,4.35,0v10.3A6.43,6.43,0,0,1,100.73,109.5Z"/></g><g id="Group_20" data-name="Group 20"><path id="Path_40" data-name="Path 40" d="M71.71,109.5H61.41A6.43,6.43,0,0,1,55,103.07V92.77a2.17,2.17,0,0,1,4.34,0v10.3a2.08,2.08,0,0,0,2.08,2.08h10.3a2.18,2.18,0,0,1,0,4.35Z"/></g><g id="Group_21" data-name="Group 21"><path id="Path_41" data-name="Path 41" d="M75.59,81.58H64.77a2.18,2.18,0,0,1-2.18-2.17h0V67.11a2.17,2.17,0,0,1,2.17-2.17H75.59a2.16,2.16,0,0,1,2.17,2.17h0v12.3a2.17,2.17,0,0,1-2.17,2.17Zm-8.65-4.34h6.47v-8H66.94Z"/></g><g id="Group_22" data-name="Group 22"><path id="Path_42" data-name="Path 42" d="M97.37,101.89H87.05a2.18,2.18,0,0,1-2.18-2.17h0V92.8a2.18,2.18,0,1,1,4.35,0h0v4.74h6V91H92.63a2.18,2.18,0,1,1,0-4.35h4.75a2.17,2.17,0,0,1,2.18,2.17h0V99.71a2.18,2.18,0,0,1-2.17,2.18Z"/></g><g id="Group_23" data-name="Group 23"><path id="Path_43" data-name="Path 43" d="M97.37,78.18H88.48A2.18,2.18,0,0,1,86.31,76h0V67.11a2.18,2.18,0,0,1,2.17-2.18h8.89a2.19,2.19,0,0,1,2.18,2.18h0V76a2.18,2.18,0,0,1-2.17,2.18Zm-6.72-4.35H95.2V69.28H90.65Z"/></g><g id="Group_24" data-name="Group 24"><path id="Path_44" data-name="Path 44" d="M82.11,88.06H64.77a2.18,2.18,0,0,1-.1-4.35H79.94V69.08a2.17,2.17,0,0,1,4.34,0v16.8A2.18,2.18,0,0,1,82.11,88.06Z"/></g><g id="Group_25" data-name="Group 25"><path id="Path_45" data-name="Path 45" d="M88.14,87.51A2.18,2.18,0,0,1,86,85.34h0v-3a2.18,2.18,0,0,1,2.17-2.18h9.79a2.18,2.18,0,0,1,0,4.35H90.31v.79a2.17,2.17,0,0,1-2.17,2.17Z"/></g><g id="Group_26" data-name="Group 26"><path id="Path_46" data-name="Path 46" d="M81.12,99.07a2.19,2.19,0,0,1-2.18-2.18h0V92a2.18,2.18,0,0,1,4.35,0v4.94a2.18,2.18,0,0,1-2.17,2.18Z"/></g><g id="Group_27" data-name="Group 27"><path id="Path_47" data-name="Path 47" d="M75.09,101.89H64.77a2.18,2.18,0,0,1-2.18-2.17h0v-7.9a2.18,2.18,0,0,1,2.17-2.18H75.09a2.18,2.18,0,0,1,2.18,2.17h0v7.9a2.17,2.17,0,0,1-2.17,2.17Zm-8.15-4.35h6V94h-6Z"/></g></g></g></g></svg>