<svg xmlns="http://www.w3.org/2000/svg" viewBox="0 0 98.3 98.3"><defs><style>.cls-1{fill:#fd7100;}.cls-2{fill:#fff;}</style></defs><title>Zasób 61</title><g id="Warstwa_2" data-name="Warstwa 2"><g id="Warstwa_1-2" data-name="Warstwa 1"><path class="cls-1" d="M87.76,0H10.53A10.54,10.54,0,0,0,0,10.53V87.76A10.54,10.54,0,0,0,10.53,98.3H87.76A10.54,10.54,0,0,0,98.3,87.76V10.53A10.54,10.54,0,0,0,87.76,0ZM20.62,84.25a3.29,3.29,0,0,1-3.2-2.55L14.13,67.44A3.29,3.29,0,0,1,16,63.67L31.4,57.09a3.31,3.31,0,0,1,3.84.94L42,66.35A50.89,50.89,0,0,0,66.35,42L58,35.24a3.31,3.31,0,0,1-.94-3.84L63.67,16a3.29,3.29,0,0,1,3.77-1.91L81.7,17.42a3.27,3.27,0,0,1,2.55,3.2A63.63,63.63,0,0,1,20.62,84.25Z"/><path class="cls-2" d="M84.25,20.62A63.63,63.63,0,0,1,20.62,84.25a3.29,3.29,0,0,1-3.2-2.55L14.13,67.44A3.29,3.29,0,0,1,16,63.67L31.4,57.09a3.31,3.31,0,0,1,3.84.94L42,66.35A50.89,50.89,0,0,0,66.35,42L58,35.24a3.31,3.31,0,0,1-.94-3.84L63.67,16a3.29,3.29,0,0,1,3.77-1.91L81.7,17.42A3.27,3.27,0,0,1,84.25,20.62Z"/></g></g></svg>