<?xml version="1.0" encoding="utf-8"?>
<!-- Generator: Adobe Illustrator 25.2.1, SVG Export Plug-In . SVG Version: 6.00 Build 0)  -->
<svg version="1.1" id="Warstwa_2" xmlns="http://www.w3.org/2000/svg" xmlns:xlink="http://www.w3.org/1999/xlink" x="0px" y="0px"
	 viewBox="0 0 548.4 132.7" style="enable-background:new 0 0 548.4 132.7;" xml:space="preserve">
<style type="text/css">
	.st0{fill:#FD7100;}
	.st1{fill:#030104;}
</style>
<g>
	<g>
		<path class="st0" d="M121.6,69l4.8-5.8c3.1,2.5,6.5,3.8,10.2,3.8c2.4,0,3.6-0.8,3.6-2.1c0-1.5-1.1-1.7-5.3-2.7
			c-6.7-1.5-11.8-3.3-11.8-9.7c0-6.1,4.8-10.1,12.1-10.1c5.3,0,9.5,1.4,12.9,4.2l-4.3,6.1c-2.9-2.1-6-3.1-8.8-3.1
			c-2.1,0-3.1,0.9-3.1,2c0,1.6,1.1,2.1,5.5,3c7.2,1.5,11.6,3.4,11.6,9.3c0,6.5-5,10.3-12.7,10.3C130.8,74.2,125.5,72.4,121.6,69z"/>
		<path class="st0" d="M176.9,73.7h-9.7L163,66l-1.9,2.3v5.3h-8.6V42.4h8.6v16.3l6-8.1h9.7l-8.1,10L176.9,73.7z"/>
		<path class="st0" d="M179,42.4h8.6v31.3H179V42.4z"/>
		<path class="st0" d="M208.7,65.8l4.7,4.8c-2.1,2.1-6,3.6-9.5,3.6c-7.4,0-12.6-5.1-12.6-12.2c0-7.1,5.1-12,12.2-12
			c7.4,0,11.8,5.2,11.8,14.1H199c0.7,2.2,2.4,3.6,4.6,3.6C205.3,67.7,207.2,67,208.7,65.8z M199.1,59.6h8.4c-0.6-1.9-2.1-3.2-4-3.2
			C201.5,56.4,199.9,57.7,199.1,59.6z"/>
		<path class="st0" d="M245.4,62.1c0,7.1-4.4,12.1-10.6,12.1c-3,0-5.5-1.2-7.4-3.3v10.4h-8.6V50.5h8.6v2.7c1.8-2.1,4.4-3.3,7.4-3.3
			C241.1,50,245.4,55,245.4,62.1z M237.2,62.1c0-2.9-2.1-4.9-5.1-4.9c-2.7,0-4.7,2.1-4.7,4.9c0,2.9,1.9,5,4.7,5
			C235.1,67,237.2,65,237.2,62.1z"/>
		<path class="st0" d="M247.9,62.1c0-6.6,6-12.1,13.1-12.1c7.1,0,13,5.5,13,12.1c0,6.6-6,12.1-13,12.1
			C253.9,74.2,247.9,68.6,247.9,62.1z M265.9,62.1c0-2.7-2.3-4.9-5-4.9c-2.7,0-5,2.2-5,4.9c0,2.7,2.3,5,5,5
			C263.7,67,265.9,64.7,265.9,62.1z"/>
		<path class="st0" d="M315.6,58.9v14.8h-8.2V60.5c0-2-1.3-3.4-3.3-3.4s-3.3,1.3-3.3,3.1v13.5h-8.2V60.5c0-2-1.3-3.4-3.3-3.4
			c-1.9,0-3.3,1.3-3.3,3.1v13.4h-8.6V50.5h8.6v2.8c1.1-2.1,3.3-3.4,6-3.4c3,0,5.7,1.4,7.2,3.8c1.3-2.3,4.1-3.8,7.5-3.8
			C311.7,50,315.6,53.7,315.6,58.9z"/>
		<path class="st0" d="M341.9,60v13.6h-8.3V72c-1.6,1.4-3.8,2.2-6,2.2c-5,0-8.9-3-8.9-7.4c0-4.5,4.4-7.7,10-7.7c1.5,0,3.2,0.4,4.9,1
			V60c0-2.3-2.1-3.6-4.7-3.6c-2.2,0-3.7,0.6-5.6,1.6l-2.6-5.2c3.2-1.6,6.7-2.7,10.6-2.7C337.1,50,341.9,53.7,341.9,60z M333.6,66.8
			v-2.2c-0.8-0.4-2.3-0.7-3.7-0.7c-1.7,0-3,1.1-3,2.7c0,1.5,1.2,2.5,2.8,2.5C331.9,69.1,333.5,68.1,333.6,66.8z"/>
		<path class="st0" d="M361.5,71.8c-1.4,1.4-3.9,2.4-6,2.4c-4.6,0-7.8-3.2-7.8-7.8v-9h-2.9v-6.8h2.9v-6.4h8.2v6.4h4.6v6.8H356v7.3
			c0,1.4,0.8,2.4,2,2.4c0.8,0,1.7-0.3,2.1-0.7L361.5,71.8z"/>
		<path class="st0" d="M364.4,79.8l1.7-5.5c1.3,0.8,2.6,1.3,3.3,1.3c1.1,0,2.1-0.3,2.3-0.7l0.4-0.9l-9.4-23.4h8.8l4.7,14.3l4.5-14.3
			h8.7l-8.7,23.3c-1.9,5-5.3,7.9-9.2,7.9C369.3,81.7,366.3,80.9,364.4,79.8z"/>
		<path d="M387.9,68.9c0-2.7,2.3-5.1,5.3-5.1c2.8,0,5.1,2.4,5.1,5.1c0,2.9-2.3,5.3-5.1,5.3C390.2,74.2,387.9,71.8,387.9,68.9z"/>
		<path class="st0" d="M401.3,62.1c0-6.6,6-12.1,13.1-12.1c4.1,0,7.4,1.7,9.6,4.3l-5.7,4.7c-0.9-1-2.6-1.8-4-1.8
			c-2.6,0-4.8,2.2-4.8,4.9c0,2.7,2.2,5,4.8,5c1.5,0,3.2-0.8,4.1-1.8l5.7,4.6c-2.3,2.7-5.6,4.4-9.9,4.4
			C407.2,74.2,401.3,68.6,401.3,62.1z"/>
		<path class="st0" d="M425.5,62.1c0-6.6,6-12.1,13.1-12.1c7.1,0,13,5.5,13,12.1c0,6.6-6,12.1-13,12.1
			C431.4,74.2,425.5,68.6,425.5,62.1z M443.5,62.1c0-2.7-2.3-4.9-5-4.9c-2.7,0-5,2.2-5,4.9c0,2.7,2.3,5,5,5
			C441.2,67,443.5,64.7,443.5,62.1z"/>
		<path class="st0" d="M493.2,58.9v14.8h-8.2V60.5c0-2-1.3-3.4-3.3-3.4s-3.3,1.3-3.3,3.1v13.5h-8.2V60.5c0-2-1.3-3.4-3.3-3.4
			s-3.3,1.3-3.3,3.1v13.4H455V50.5h8.6v2.8c1.1-2.1,3.3-3.4,6-3.4c3,0,5.7,1.4,7.2,3.8c1.3-2.3,4.1-3.8,7.5-3.8
			C489.2,50,493.2,53.7,493.2,58.9z"/>
	</g>
	<g>
		<path class="st1" d="M123.7,93.5h0.9v4.4l4-4.4h1.2l-3.3,3.6l3.6,4.3h-1.2l-3-3.7l-1.2,1.3v2.4h-0.9V93.5z"/>
		<path class="st1" d="M139.3,97.5c0-2.2,1.9-4.1,4.1-4.1c2.2,0,4.1,1.9,4.1,4.1s-1.8,4.1-4.1,4.1
			C141.1,101.6,139.3,99.7,139.3,97.5z M146.5,97.5c0-1.8-1.4-3.3-3.1-3.3s-3.2,1.5-3.2,3.3c0,1.8,1.4,3.3,3.2,3.3
			S146.5,99.3,146.5,97.5z"/>
		<path class="st1" d="M157.8,93.5h0.9l2.9,5.5l2.9-5.5h0.9v7.9h-0.9v-6l-2.9,5.5l-2.9-5.5v6h-0.9V93.5z"/>
		<path class="st1" d="M177.1,94.4V97h4.3v0.9h-4.3v3.6h-0.9v-7.9h5.7v0.9H177.1z"/>
		<path class="st1" d="M191.7,97.5c0-2.2,1.9-4.1,4.1-4.1c2.2,0,4.1,1.9,4.1,4.1s-1.8,4.1-4.1,4.1
			C193.5,101.6,191.7,99.7,191.7,97.5z M198.9,97.5c0-1.8-1.4-3.3-3.1-3.3s-3.2,1.5-3.2,3.3c0,1.8,1.4,3.3,3.2,3.3
			S198.9,99.3,198.9,97.5z"/>
		<path class="st1" d="M214,98.5l2.1,2.9h-1l-2-2.9h-2.1v2.9H210v-7.9h3.2c1.6,0,2.9,1.1,2.9,2.5C216.2,97.3,215.3,98.3,214,98.5z
			 M210.9,97.8h2.2c1.3,0,2.2-0.6,2.2-1.7s-0.9-1.7-2.2-1.7h-2.2V97.8z"/>
		<path class="st1" d="M228.5,94.4h-2.7v-0.9h6.2v0.9h-2.7v7.1h-0.9V94.4z"/>
		<path class="st1" d="M254,97.5c0-2.2,1.9-4.1,4.1-4.1c2.2,0,4.1,1.9,4.1,4.1s-1.8,4.1-4.1,4.1C255.9,101.6,254,99.7,254,97.5z
			 M261.3,97.5c0-1.8-1.4-3.3-3.1-3.3s-3.2,1.5-3.2,3.3c0,1.8,1.4,3.3,3.2,3.3S261.3,99.3,261.3,97.5z"/>
		<path class="st1" d="M272.6,93.5h2.7c2.5,0,4.3,1.6,4.3,4c0,2.3-1.8,4-4.3,4h-2.7V93.5z M275.3,100.7c2,0,3.4-1.3,3.4-3.2
			c0-1.8-1.4-3.1-3.4-3.1h-1.8v6.3H275.3z"/>
		<path class="st1" d="M290.1,93.5h3.6c1.3,0,2.2,0.8,2.2,2c0,0.8-0.4,1.3-1.1,1.7c0.9,0.5,1.4,1.2,1.4,2c0,1.3-1,2.2-2.4,2.2h-3.8
			V93.5z M293.5,96.9c0.9,0,1.5-0.5,1.5-1.3s-0.6-1.3-1.5-1.3H291v2.5H293.5z M293.7,100.7c1,0,1.7-0.6,1.7-1.5s-0.7-1.5-1.7-1.5
			H291v2.9H293.7z"/>
		<path class="st1" d="M306.5,93.5h0.9v7.9h-0.9V93.5z"/>
		<path class="st1" d="M317.7,97.5c0-2.2,1.9-4.1,4.1-4.1c2.2,0,4.1,1.9,4.1,4.1s-1.8,4.1-4.1,4.1
			C319.6,101.6,317.7,99.7,317.7,97.5z M324.9,97.5c0-1.8-1.4-3.3-3.1-3.3c-1.7,0-3.2,1.5-3.2,3.3c0,1.8,1.4,3.3,3.2,3.3
			C323.5,100.8,324.9,99.3,324.9,97.5z"/>
		<path class="st1" d="M340,98.5l2.1,2.9h-1l-2-2.9H337v2.9h-0.9v-7.9h3.2c1.6,0,2.9,1.1,2.9,2.5C342.2,97.3,341.3,98.3,340,98.5z
			 M337,97.8h2.2c1.3,0,2.2-0.6,2.2-1.7s-0.9-1.7-2.2-1.7H337V97.8z"/>
		<path class="st1" d="M352.4,98.2v-4.6h0.9v4.6c0,1.5,1,2.6,2.4,2.6s2.4-1.1,2.4-2.6v-4.6h0.9v4.6c0,2-1.4,3.4-3.3,3.4
			S352.4,100.2,352.4,98.2z"/>
		<path class="st1" d="M381.5,100.8l4.8-6.4h-4.7v-0.9h5.9v0.7l-4.8,6.4h4.8v0.9h-6.1V100.8z"/>
		<path class="st1" d="M403.5,99.7h-4.4l-0.8,1.8h-1l3.5-7.9h1l3.5,7.9h-1L403.5,99.7z M403.1,98.8l-1.8-4.2l-1.8,4.2H403.1z"/>
		<path class="st1" d="M415.4,93.5h0.9v4.4l4-4.4h1.2l-3.3,3.6l3.6,4.3h-1.2l-3-3.7l-1.2,1.3v2.4h-0.9V93.5z"/>
		<path class="st1" d="M431.7,98.2v-4.6h0.9v4.6c0,1.5,1,2.6,2.4,2.6s2.4-1.1,2.4-2.6v-4.6h0.9v4.6c0,2-1.4,3.4-3.3,3.4
			S431.7,100.2,431.7,98.2z"/>
		<path class="st1" d="M449,93.5h3.2c1.6,0,2.9,1.1,2.9,2.5s-1.3,2.5-2.9,2.5h-2.3v2.9H449V93.5z M452,97.8c1.3,0,2.2-0.6,2.2-1.7
			s-0.9-1.7-2.2-1.7h-2.2v3.4H452z"/>
		<path class="st1" d="M464.8,97.5c0-2.2,1.9-4.1,4.1-4.1c2.2,0,4.1,1.9,4.1,4.1s-1.8,4.1-4.1,4.1
			C466.7,101.6,464.8,99.7,464.8,97.5z M472,97.5c0-1.8-1.4-3.3-3.1-3.3c-1.7,0-3.2,1.5-3.2,3.3c0,1.8,1.4,3.3,3.2,3.3
			C470.6,100.8,472,99.3,472,97.5z M470,91.2l0.9,0.2l-1.6,1.5h-0.7L470,91.2z"/>
		<path class="st1" d="M482.4,93.5h1l2.2,6.4l2.1-6.4h1l2.1,6.4l2.2-6.4h1l-2.7,7.9h-0.9l-2.2-6.8l-2.2,6.8h-0.9L482.4,93.5z"/>
	</g>
	<g>
		<path class="st1" d="M110.4,53.1c-9.1,19.2-12,19.2-13.8,19.2H79.3c-6.1,0-10.7-3.6-11.9-9.1c0-0.2-3.5-17-4.4-21.8
			c-0.4-2.3-1.5-3.9-5.5-3.9c-1.8,0-3.3-1.5-3.3-3.3s1.5-3.3,3.3-3.3c6.6,0,10.8,3.3,11.9,9.2c0.9,4.7,4.3,21.5,4.3,21.7
			c0.7,3.4,3.7,3.9,5.5,3.9h16.5c1.8-1.9,5.8-9.2,8.8-15.5c0.8-1.6,2.7-2.3,4.3-1.6C110.5,49.5,111.2,51.4,110.4,53.1z M77.1,74.5
			c-3,0-5.4,2.4-5.4,5.4c0,3,2.4,5.4,5.4,5.4s5.4-2.4,5.4-5.4C82.5,76.9,80.1,74.5,77.1,74.5z M96.6,74.5c-3,0-5.4,2.4-5.4,5.4
			c0,3,2.4,5.4,5.4,5.4s5.4-2.4,5.4-5.4C102,76.9,99.6,74.5,96.6,74.5z M99.9,37.6c0-0.3-0.2-0.5-0.3-0.7c-0.2-0.2-0.4-0.3-0.7-0.3
			c-0.3,0-8.5-0.1-14.2,1c-0.4,0.1-0.8,0.4-0.9,0.8c-0.1,0.4,0,0.9,0.3,1.2l3.4,3.4c0,0-6.3,6.9-6.3,7.4c-0.1,0.8,0.9,2.4,1.7,3.2
			c0.9,0.9,2.5,1.9,3.3,1.7c0.5-0.1,7.4-6.4,7.4-6.4l3.5,3.5c0.3,0.3,0.8,0.4,1.2,0.3c0.4-0.1,0.8-0.5,0.8-0.9
			C100.1,46.2,99.9,37.9,99.9,37.6z"/>
	</g>
</g>
</svg>
