<svg xmlns="http://www.w3.org/2000/svg" viewBox="0 0 162 162"><defs><style>.cls-1{fill:none;}.cls-2{fill:#fd7100;}</style></defs><title>Zasób 41</title><g id="Warstwa_2" data-name="Warstwa 2"><g id="Warstwa_1-2" data-name="Warstwa 1"><rect class="cls-1" width="162" height="162"/><g id="Inteligentny_obiekt_wektorowy" data-name="Inteligentny obiekt wektorowy"><g id="Group_3" data-name="Group 3"><path id="Path_12" data-name="Path 12" class="cls-2" d="M132.43,71.94c-16.73,34-22.18,34-25.43,34H75c-11.2,0-19.8-6.33-21.88-16.13-.06-.3-6.4-30.16-8-38.5-.8-4.09-2.82-6.82-10.1-6.82A5.76,5.76,0,1,1,35,33h0c12.08,0,19.86,5.76,21.9,16.22,1.6,8.25,7.92,38,8,38.31,1.27,6,6.89,6.91,10.12,6.91h30.41c3.27-3.37,10.72-16.36,16.16-27.42a6.11,6.11,0,0,1,8-2.75,5.66,5.66,0,0,1,3,7.43ZM71,109.8a9.61,9.61,0,1,0,10,9.6,9.8,9.8,0,0,0-10-9.6Zm36,0a9.61,9.61,0,1,0,10,9.6,9.8,9.8,0,0,0-10-9.6Z"/></g><path id="Path_13" data-name="Path 13" d="M87.66,78.48a2.31,2.31,0,0,0,2.76,0c.4-.3,11.32-10.53,17.27-19a2.06,2.06,0,0,0,.11-2.2,2.23,2.23,0,0,0-2-1.13h-8.9s-.87-16.48-1.44-17.24C94.68,37.75,91.28,37,89,37s-5.71.77-6.54,1.9c-.56.76-1.31,17.24-1.31,17.24h-9a2.26,2.26,0,0,0-2,1.13,2.08,2.08,0,0,0,.12,2.2C76.27,68,87.26,78.18,87.66,78.48Z"/></g></g></g></svg>