<svg xmlns="http://www.w3.org/2000/svg" viewBox="0 0 98.3 98.3"><defs><style>.cls-2{fill:#fff}</style></defs><g id="Warstwa_2" data-name="Warstwa 2"><g id="Warstwa_1-2" data-name="Warstwa 1"><path d="M87.76 0H10.53A10.54 10.54 0 000 10.53v77.23A10.54 10.54 0 0010.53 98.3h77.23A10.54 10.54 0 0098.3 87.76V10.53A10.54 10.54 0 0087.76 0zm-3.51 72A5.25 5.25 0 0179 77.23H19.31A5.26 5.26 0 0114 72V40.76c3.11 2.37 7.36 5.54 21 15.41 3.11 2.27 8.34 7 14.2 7s11.19-4.84 14.2-7c13.59-9.86 17.84-13 20.9-15.4zm0-40.12c-5.34 4.16-5.14 4.2-25 18.64-2.3 1.68-6.88 5.73-10.06 5.68s-7.76-4-10.07-5.68C19.18 36.05 19.38 36 14 31.85v-5.52a5.27 5.27 0 015.27-5.27H79a5.26 5.26 0 015.26 5.27z" fill="#fd7100"/><path class="cls-2" d="M84.25 40.76V72A5.25 5.25 0 0179 77.23H19.31A5.26 5.26 0 0114 72V40.76c3.11 2.37 7.36 5.54 21 15.41 3.11 2.27 8.34 7 14.2 7s11.19-4.84 14.2-7c13.54-9.87 17.79-13.04 20.85-15.41z"/><path class="cls-2" d="M84.25 26.33v5.52c-5.34 4.16-5.14 4.2-25 18.64-2.3 1.68-6.88 5.73-10.06 5.68s-7.76-4-10.07-5.68C19.18 36.05 19.38 36 14 31.85v-5.52a5.27 5.27 0 015.27-5.27H79a5.26 5.26 0 015.25 5.27z"/></g></g></svg>