<svg xmlns="http://www.w3.org/2000/svg" viewBox="0 0 98.3 98.3"><g data-name="Warstwa 2"><g data-name="Warstwa 1"><path d="M87.76 0H10.53A10.54 10.54 0 000 10.53v77.23A10.54 10.54 0 0010.53 98.3h77.23A10.54 10.54 0 0098.3 87.76V10.53A10.54 10.54 0 0087.76 0zM20.62 84.25a3.29 3.29 0 01-3.2-2.55l-3.29-14.26A3.29 3.29 0 0116 63.67l15.4-6.58a3.31 3.31 0 013.84.94L42 66.35A50.89 50.89 0 0066.35 42L58 35.24a3.31 3.31 0 01-.94-3.84L63.67 16a3.29 3.29 0 013.77-1.91l14.26 3.33a3.27 3.27 0 012.55 3.2 63.63 63.63 0 01-63.63 63.63z" fill="#fd7100"/><path d="M84.25 20.62a63.63 63.63 0 01-63.63 63.63 3.29 3.29 0 01-3.2-2.55l-3.29-14.26A3.29 3.29 0 0116 63.67l15.4-6.58a3.31 3.31 0 013.84.94L42 66.35A50.89 50.89 0 0066.35 42L58 35.24a3.31 3.31 0 01-.94-3.84L63.67 16a3.29 3.29 0 013.77-1.91l14.26 3.33a3.27 3.27 0 012.55 3.2z" fill="#fff"/></g></g></svg>