<svg xmlns="http://www.w3.org/2000/svg" viewBox="0 0 162 162"><g data-name="Warstwa 2"><g data-name="Warstwa 1"><path fill="none" d="M0 0h162v162H0z"/><g data-name="Inteligentny obiekt wektorowy"><g data-name="Group 3"><path data-name="Path 12" d="M132.43 71.94c-16.73 34-22.18 34-25.43 34H75c-11.2 0-19.8-6.33-21.88-16.13-.06-.3-6.4-30.16-8-38.5-.8-4.09-2.82-6.82-10.1-6.82A5.76 5.76 0 1135 33c12.08 0 19.86 5.76 21.9 16.22 1.6 8.25 7.92 38 8 38.31 1.27 6 6.89 6.91 10.12 6.91h30.41c3.27-3.37 10.72-16.36 16.16-27.42a6.11 6.11 0 018-2.75 5.66 5.66 0 013 7.43zM71 109.8a9.61 9.61 0 1010 9.6 9.8 9.8 0 00-10-9.6zm36 0a9.61 9.61 0 1010 9.6 9.8 9.8 0 00-10-9.6z" fill="#fd7100"/></g><path data-name="Path 13" d="M87.66 78.48a2.31 2.31 0 002.76 0c.4-.3 11.32-10.53 17.27-19a2.06 2.06 0 00.11-2.2 2.23 2.23 0 00-2-1.13h-8.9s-.87-16.48-1.44-17.24C94.68 37.75 91.28 37 89 37s-5.71.77-6.54 1.9c-.56.76-1.31 17.24-1.31 17.24h-9a2.26 2.26 0 00-2 1.13 2.08 2.08 0 00.12 2.2c6 8.53 16.99 18.71 17.39 19.01z"/></g></g></g></svg>