<svg xmlns="http://www.w3.org/2000/svg" width="74.679" height="123" viewBox="0 0 74.679 123">
  <path id="Path_36" data-name="Path 36" d="M321.2,13.9v97.082c-.141.7-.321,1.4-.417,2.107a12.861,12.861,0,0,1-10.541,10.444c-.673.083-1.334.269-2,.408H259.48c-.667-.139-1.328-.319-2-.409a12.821,12.821,0,0,1-10.551-10.552c-.088-.672-.269-1.332-.407-2V13.9c.138-.666.318-1.326.406-2A12.855,12.855,0,0,1,257.369,1.355c.709-.1,1.407-.276,2.111-.417h48.761c.667.138,1.328.322,2,.406a12.853,12.853,0,0,1,10.54,10.446C320.877,12.5,321.059,13.195,321.2,13.9Zm-8.725,48.537q0-24.043,0-48.087c0-3.01-1.664-4.67-4.663-4.684-1.171-.005-2.345-.048-3.511.032a1.172,1.172,0,0,0-.867.671c-.5,2.626-2.624,3.678-4.992,3.682q-14.6.023-29.2,0c-2.338-.005-4.441-1.057-4.9-3.628a.813.813,0,0,0-.974-.765c-1.17.036-2.342,0-3.513.011-2.955.016-4.6,1.657-4.6,4.624q-.006,48.142,0,96.283c0,2.943,1.677,4.638,4.595,4.639q23.989.009,47.977,0a5.661,5.661,0,0,0,1.619-.178c2.069-.627,3.034-2.115,3.034-4.616Q312.478,86.423,312.475,62.434Z" transform="translate(-246.521 -0.938)" fill="#fd7100"/>
</svg>
