<svg xmlns="http://www.w3.org/2000/svg" width="104.001" height="96" viewBox="0 0 104.001 96">
  <g id="Inteligentny_obiekt_wektorowy" data-name="Inteligentny obiekt wektorowy" transform="translate(0 -1.92)">
    <g id="Group_3" data-name="Group 3">
      <path id="Path_12" data-name="Path 12" d="M103.424,40.861C86.692,74.88,81.248,74.88,78,74.88H46c-11.208,0-19.8-6.328-21.88-16.128-.064-.3-6.4-30.156-8.02-38.5-.8-4.09-2.82-6.816-10.1-6.816A5.881,5.881,0,0,1,0,7.68,5.881,5.881,0,0,1,6,1.92c12.08,0,19.856,5.76,21.9,16.22,1.6,8.252,7.92,38.008,7.984,38.312,1.276,6.013,6.888,6.912,10.12,6.912H76.42C79.688,59.992,87.136,47,92.572,35.942a6.119,6.119,0,0,1,7.988-2.749A5.658,5.658,0,0,1,103.424,40.861ZM42,78.72a9.608,9.608,0,1,0,10,9.6A9.8,9.8,0,0,0,42,78.72Zm36,0a9.608,9.608,0,1,0,10,9.6A9.8,9.8,0,0,0,78,78.72Z" fill="#fd7100"/>
    </g>
    <path id="Path_13" data-name="Path 13" d="M58.652,47.4a2.309,2.309,0,0,0,2.768,0c.4-.3,11.312-10.522,17.264-19.023a2.064,2.064,0,0,0,.112-2.2,2.232,2.232,0,0,0-1.96-1.133h-8.9S67.064,8.563,66.5,7.8c-.824-1.129-4.228-1.9-6.464-1.9S54.324,6.67,53.5,7.8c-.564.76-1.312,17.242-1.312,17.242h-9.02A2.25,2.25,0,0,0,41.2,26.173a2.08,2.08,0,0,0,.112,2.2C47.264,36.883,58.256,47.1,58.652,47.4Z"/>
  </g>
</svg>
