<svg xmlns="http://www.w3.org/2000/svg" viewBox="0 0 162 162"><g data-name="Warstwa 2"><g data-name="Warstwa 1"><path fill="none" d="M0 0h162v162H0z"/><path d="M121.55 13.93a39.56 39.56 0 01-7 12.53A3.36 3.36 0 01110 27L88.11 10.6a1.69 1.69 0 01-.56-1.95l2.83-7.49a.84.84 0 011.09-.49l29.09 11.11a1.69 1.69 0 01.99 2.15zm-13.31 17.85c-3.17 6.62-5.85 8.66-9.45 11.6l-1.45 1.19c-1.63 2.9-4 7.7-7 10.17-1.64 1.35-3.45 2-5.39 1.26a3.84 3.84 0 01-1.77-1.26c-.91-1.22-1-3.23.23-6.55a47.66 47.66 0 012.2-4.81c2-3.88 4.25-7.66 4.45-8a35.48 35.48 0 00-8 8H67.8a21.51 21.51 0 011-4.36c2.46-6.5 12.3-16.9 18.28-22.84L107 31a7.53 7.53 0 001.24.78zM79.47 66.93H68.8V54.74h10.37c-.01 3.87.29 8.26.3 12.19z" data-name="Group 6"/><path d="M126.5 66.93v94.45h-91V66.93h22V49.06l5.64-5.68h22.43a47.66 47.66 0 00-2.2 4.81c-1.26 3.32-1.14 5.33-.23 6.55H68.8v12.19h24.4V54.74h-2.9c3-2.47 5.41-7.27 7-10.17l1.45-1.19 5.64 5.68v17.87z" fill="#fd7100" data-name="Inteligentny obiekt wektorowy-3"/></g></g></svg>