<svg xmlns="http://www.w3.org/2000/svg" viewBox="0 0 162 162"><g data-name="Warstwa 2"><g data-name="Warstwa 1"><path fill="none" d="M0 0h162v162H0z"/><g data-name="Group 3-2"><g data-name="Group 16"><g data-name="Group 15"><path data-name="Path 36" d="M118.34 32.46v97.08c-.14.7-.32 1.4-.42 2.11a12.86 12.86 0 01-10.54 10.44c-.67.09-1.33.27-2 .41H56.62c-.67-.14-1.33-.32-2-.41a12.83 12.83 0 01-10.55-10.55c-.09-.67-.27-1.33-.41-2V32.46c.14-.67.32-1.33.41-2a12.84 12.84 0 0110.44-10.54c.71-.1 1.4-.28 2.11-.42h48.76c.67.14 1.33.32 2 .4a12.87 12.87 0 0110.54 10.45c.08.71.28 1.41.42 2.11zM109.61 81V32.91c0-3-1.66-4.67-4.66-4.68-1.17 0-2.34-.05-3.51 0a1.17 1.17 0 00-.87.67c-.5 2.63-2.62 3.68-5 3.68h-29.2c-2.34 0-4.44-1.06-4.9-3.63a.81.81 0 00-.84-.78h-3.65c-3 0-4.6 1.66-4.6 4.62v96.29c0 2.94 1.68 4.63 4.6 4.64h48a6.22 6.22 0 001.61-.18c2.07-.63 3-2.12 3-4.62v-48z" fill="#fd7100"/></g></g><g data-name="Group 17"><path data-name="Path 37" d="M105 76.23a2.17 2.17 0 01-2.17-2.17v-10.3a2.08 2.08 0 00-2.08-2.08H90.42a2.18 2.18 0 010-4.35h10.3a6.43 6.43 0 016.43 6.43v10.3a2.17 2.17 0 01-2.15 2.17z"/></g><g data-name="Group 18"><path data-name="Path 38" d="M57.16 76.23A2.18 2.18 0 0155 74.06v-10.3a6.44 6.44 0 016.43-6.43h10.3a2.18 2.18 0 010 4.35H61.41a2.08 2.08 0 00-2.08 2.08v10.3a2.17 2.17 0 01-2.17 2.17z"/></g><g data-name="Group 19"><path data-name="Path 39" d="M100.73 109.5H90.42a2.18 2.18 0 010-4.35h10.3a2.08 2.08 0 002.08-2.08v-10.3a2.18 2.18 0 014.35 0v10.3a6.43 6.43 0 01-6.42 6.43z"/></g><g data-name="Group 20"><path data-name="Path 40" d="M71.71 109.5h-10.3a6.43 6.43 0 01-6.41-6.43v-10.3a2.17 2.17 0 014.34 0v10.3a2.08 2.08 0 002.08 2.08h10.3a2.18 2.18 0 010 4.35z"/></g><g data-name="Group 21"><path data-name="Path 41" d="M75.59 81.58H64.77a2.18 2.18 0 01-2.18-2.17v-12.3a2.17 2.17 0 012.17-2.17h10.83a2.16 2.16 0 012.17 2.17v12.3a2.17 2.17 0 01-2.17 2.17zm-8.65-4.34h6.47v-8h-6.47z"/></g><g data-name="Group 22"><path data-name="Path 42" d="M97.37 101.89H87.05a2.18 2.18 0 01-2.18-2.17V92.8a2.18 2.18 0 114.35 0v4.74h6V91h-2.59a2.18 2.18 0 110-4.35h4.75a2.17 2.17 0 012.18 2.17v10.89a2.18 2.18 0 01-2.17 2.18z"/></g><g data-name="Group 23"><path data-name="Path 43" d="M97.37 78.18h-8.89A2.18 2.18 0 0186.31 76v-8.89a2.18 2.18 0 012.17-2.18h8.89a2.19 2.19 0 012.18 2.18V76a2.18 2.18 0 01-2.17 2.18zm-6.72-4.35h4.55v-4.55h-4.55z"/></g><g data-name="Group 24"><path data-name="Path 44" d="M82.11 88.06H64.77a2.18 2.18 0 01-.1-4.35h15.27V69.08a2.17 2.17 0 014.34 0v16.8a2.18 2.18 0 01-2.17 2.18z"/></g><g data-name="Group 25"><path data-name="Path 45" d="M88.14 87.51A2.18 2.18 0 0186 85.34v-3a2.18 2.18 0 012.17-2.18h9.79a2.18 2.18 0 010 4.35h-7.65v.79a2.17 2.17 0 01-2.17 2.17z"/></g><g data-name="Group 26"><path data-name="Path 46" d="M81.12 99.07a2.19 2.19 0 01-2.18-2.18V92a2.18 2.18 0 014.35 0v4.94a2.18 2.18 0 01-2.17 2.18z"/></g><g data-name="Group 27"><path data-name="Path 47" d="M75.09 101.89H64.77a2.18 2.18 0 01-2.18-2.17v-7.9a2.18 2.18 0 012.17-2.18h10.33a2.18 2.18 0 012.18 2.17v7.9a2.17 2.17 0 01-2.17 2.17zm-8.15-4.35h6V94h-6z"/></g></g></g></g></svg>