<svg xmlns="http://www.w3.org/2000/svg" viewBox="0 0 68.74 68.74"><g data-name="Warstwa 2"><path d="M68.74 55.85a12.89 12.89 0 01-12.89 12.89h-43A12.89 12.89 0 010 55.85v-43A12.89 12.89 0 0112.89 0h43a12.89 12.89 0 0112.85 12.89zM57.2 47c-.27-.81-6.81-4.12-8.06-4.84-.85-.49-1.88-1.47-2.91-1.47-2 0-4.88 5.86-6.62 5.86a7.24 7.24 0 01-2.82-1.25A32.8 32.8 0 0123.5 32a7.12 7.12 0 01-1.26-2.82c0-1.74 5.87-4.65 5.87-6.62 0-1-1-2.06-1.48-2.91-.72-1.25-4-7.78-4.83-8a2 2 0 00-.72-.09 15.63 15.63 0 00-4.52 1c-2.95 1.34-5.1 7-5.1 10.07s1.21 5.73 2.23 8.5c3.58 9.81 14.24 20.46 24 24 2.77 1 5.5 2.24 8.5 2.24S55 55.14 56.3 52.18a15.57 15.57 0 001-4.52 1.93 1.93 0 00-.1-.66z" fill="#fd7100" data-name="Warstwa 1"/></g></svg>
