<svg version="1.1" id="Warstwa_2" xmlns="http://www.w3.org/2000/svg" x="0" y="0" viewBox="0 0 548.4 132.7" xml:space="preserve"><style>.st0{fill:#fd7100}</style><path class="st0" d="M121.6 69l4.8-5.8c3.1 2.5 6.5 3.8 10.2 3.8 2.4 0 3.6-.8 3.6-2.1 0-1.5-1.1-1.7-5.3-2.7-6.7-1.5-11.8-3.3-11.8-9.7 0-6.1 4.8-10.1 12.1-10.1 5.3 0 9.5 1.4 12.9 4.2l-4.3 6.1c-2.9-2.1-6-3.1-8.8-3.1-2.1 0-3.1.9-3.1 2 0 1.6 1.1 2.1 5.5 3 7.2 1.5 11.6 3.4 11.6 9.3 0 6.5-5 10.3-12.7 10.3-5.5 0-10.8-1.8-14.7-5.2zm55.3 4.7h-9.7L163 66l-1.9 2.3v5.3h-8.6V42.4h8.6v16.3l6-8.1h9.7l-8.1 10 8.2 13.1zm2.1-31.3h8.6v31.3H179V42.4zm29.7 23.4l4.7 4.8c-2.1 2.1-6 3.6-9.5 3.6-7.4 0-12.6-5.1-12.6-12.2s5.1-12 12.2-12c7.4 0 11.8 5.2 11.8 14.1H199c.7 2.2 2.4 3.6 4.6 3.6 1.7 0 3.6-.7 5.1-1.9zm-9.6-6.2h8.4c-.6-1.9-2.1-3.2-4-3.2-2 0-3.6 1.3-4.4 3.2zm46.3 2.5c0 7.1-4.4 12.1-10.6 12.1-3 0-5.5-1.2-7.4-3.3v10.4h-8.6V50.5h8.6v2.7c1.8-2.1 4.4-3.3 7.4-3.3 6.3.1 10.6 5.1 10.6 12.2zm-8.2 0c0-2.9-2.1-4.9-5.1-4.9-2.7 0-4.7 2.1-4.7 4.9 0 2.9 1.9 5 4.7 5 3-.1 5.1-2.1 5.1-5zm10.7 0c0-6.6 6-12.1 13.1-12.1s13 5.5 13 12.1-6 12.1-13 12.1c-7.1 0-13.1-5.6-13.1-12.1zm18 0c0-2.7-2.3-4.9-5-4.9s-5 2.2-5 4.9 2.3 5 5 5c2.8-.1 5-2.4 5-5zm49.7-3.2v14.8h-8.2V60.5c0-2-1.3-3.4-3.3-3.4s-3.3 1.3-3.3 3.1v13.5h-8.2V60.5c0-2-1.3-3.4-3.3-3.4-1.9 0-3.3 1.3-3.3 3.1v13.4h-8.6V50.5h8.6v2.8c1.1-2.1 3.3-3.4 6-3.4 3 0 5.7 1.4 7.2 3.8 1.3-2.3 4.1-3.8 7.5-3.8 5 .1 8.9 3.8 8.9 9zm26.3 1.1v13.6h-8.3V72c-1.6 1.4-3.8 2.2-6 2.2-5 0-8.9-3-8.9-7.4 0-4.5 4.4-7.7 10-7.7 1.5 0 3.2.4 4.9 1V60c0-2.3-2.1-3.6-4.7-3.6-2.2 0-3.7.6-5.6 1.6l-2.6-5.2c3.2-1.6 6.7-2.7 10.6-2.7 5.8-.1 10.6 3.6 10.6 9.9zm-8.3 6.8v-2.2c-.8-.4-2.3-.7-3.7-.7-1.7 0-3 1.1-3 2.7 0 1.5 1.2 2.5 2.8 2.5 2.2 0 3.8-1 3.9-2.3zm27.9 5c-1.4 1.4-3.9 2.4-6 2.4-4.6 0-7.8-3.2-7.8-7.8v-9h-2.9v-6.8h2.9v-6.4h8.2v6.4h4.6v6.8H356v7.3c0 1.4.8 2.4 2 2.4.8 0 1.7-.3 2.1-.7l1.4 5.4zm2.9 8l1.7-5.5c1.3.8 2.6 1.3 3.3 1.3 1.1 0 2.1-.3 2.3-.7l.4-.9-9.4-23.4h8.8l4.7 14.3 4.5-14.3h8.7l-8.7 23.3c-1.9 5-5.3 7.9-9.2 7.9-2.2-.1-5.2-.9-7.1-2z"/><path d="M387.9 68.9c0-2.7 2.3-5.1 5.3-5.1 2.8 0 5.1 2.4 5.1 5.1 0 2.9-2.3 5.3-5.1 5.3-3 0-5.3-2.4-5.3-5.3z"/><path class="st0" d="M401.3 62.1c0-6.6 6-12.1 13.1-12.1 4.1 0 7.4 1.7 9.6 4.3l-5.7 4.7c-.9-1-2.6-1.8-4-1.8-2.6 0-4.8 2.2-4.8 4.9s2.2 5 4.8 5c1.5 0 3.2-.8 4.1-1.8l5.7 4.6c-2.3 2.7-5.6 4.4-9.9 4.4-7-.1-12.9-5.7-12.9-12.2zm24.2 0c0-6.6 6-12.1 13.1-12.1s13 5.5 13 12.1-6 12.1-13 12.1c-7.2 0-13.1-5.6-13.1-12.1zm18 0c0-2.7-2.3-4.9-5-4.9s-5 2.2-5 4.9 2.3 5 5 5c2.7-.1 5-2.4 5-5zm49.7-3.2v14.8H485V60.5c0-2-1.3-3.4-3.3-3.4s-3.3 1.3-3.3 3.1v13.5h-8.2V60.5c0-2-1.3-3.4-3.3-3.4s-3.3 1.3-3.3 3.1v13.4H455V50.5h8.6v2.8c1.1-2.1 3.3-3.4 6-3.4 3 0 5.7 1.4 7.2 3.8 1.3-2.3 4.1-3.8 7.5-3.8 4.9.1 8.9 3.8 8.9 9z"/><path d="M123.7 93.5h.9v4.4l4-4.4h1.2l-3.3 3.6 3.6 4.3h-1.2l-3-3.7-1.2 1.3v2.4h-.9v-7.9zm15.6 4c0-2.2 1.9-4.1 4.1-4.1 2.2 0 4.1 1.9 4.1 4.1s-1.8 4.1-4.1 4.1-4.1-1.9-4.1-4.1zm7.2 0c0-1.8-1.4-3.3-3.1-3.3s-3.2 1.5-3.2 3.3c0 1.8 1.4 3.3 3.2 3.3s3.1-1.5 3.1-3.3zm11.3-4h.9l2.9 5.5 2.9-5.5h.9v7.9h-.9v-6l-2.9 5.5-2.9-5.5v6h-.9v-7.9zm19.3.9V97h4.3v.9h-4.3v3.6h-.9v-7.9h5.7v.9h-4.8zm14.6 3.1c0-2.2 1.9-4.1 4.1-4.1 2.2 0 4.1 1.9 4.1 4.1s-1.8 4.1-4.1 4.1-4.1-1.9-4.1-4.1zm7.2 0c0-1.8-1.4-3.3-3.1-3.3s-3.2 1.5-3.2 3.3c0 1.8 1.4 3.3 3.2 3.3s3.1-1.5 3.1-3.3zm15.1 1l2.1 2.9h-1l-2-2.9H211v2.9h-1v-7.9h3.2c1.6 0 2.9 1.1 2.9 2.5.1 1.3-.8 2.3-2.1 2.5zm-3.1-.7h2.2c1.3 0 2.2-.6 2.2-1.7s-.9-1.7-2.2-1.7h-2.2v3.4zm17.6-3.4h-2.7v-.9h6.2v.9h-2.7v7.1h-.9v-7.1zm25.5 3.1c0-2.2 1.9-4.1 4.1-4.1 2.2 0 4.1 1.9 4.1 4.1s-1.8 4.1-4.1 4.1c-2.2 0-4.1-1.9-4.1-4.1zm7.3 0c0-1.8-1.4-3.3-3.1-3.3s-3.2 1.5-3.2 3.3c0 1.8 1.4 3.3 3.2 3.3s3.1-1.5 3.1-3.3zm11.3-4h2.7c2.5 0 4.3 1.6 4.3 4 0 2.3-1.8 4-4.3 4h-2.7v-8zm2.7 7.2c2 0 3.4-1.3 3.4-3.2 0-1.8-1.4-3.1-3.4-3.1h-1.8v6.3h1.8zm14.8-7.2h3.6c1.3 0 2.2.8 2.2 2 0 .8-.4 1.3-1.1 1.7.9.5 1.4 1.2 1.4 2 0 1.3-1 2.2-2.4 2.2H290v-7.9zm3.4 3.4c.9 0 1.5-.5 1.5-1.3s-.6-1.3-1.5-1.3H291v2.5h2.5zm.2 3.8c1 0 1.7-.6 1.7-1.5s-.7-1.5-1.7-1.5H291v2.9h2.7zm12.8-7.2h.9v7.9h-.9v-7.9zm11.2 4c0-2.2 1.9-4.1 4.1-4.1 2.2 0 4.1 1.9 4.1 4.1s-1.8 4.1-4.1 4.1c-2.2 0-4.1-1.9-4.1-4.1zm7.2 0c0-1.8-1.4-3.3-3.1-3.3-1.7 0-3.2 1.5-3.2 3.3 0 1.8 1.4 3.3 3.2 3.3 1.7 0 3.1-1.5 3.1-3.3zm15.1 1l2.1 2.9h-1l-2-2.9H337v2.9h-.9v-7.9h3.2c1.6 0 2.9 1.1 2.9 2.5 0 1.3-.9 2.3-2.2 2.5zm-3-.7h2.2c1.3 0 2.2-.6 2.2-1.7s-.9-1.7-2.2-1.7H337v3.4zm15.4.4v-4.6h.9v4.6c0 1.5 1 2.6 2.4 2.6s2.4-1.1 2.4-2.6v-4.6h.9v4.6c0 2-1.4 3.4-3.3 3.4s-3.3-1.4-3.3-3.4zm29.1 2.6l4.8-6.4h-4.7v-.9h5.9v.7l-4.8 6.4h4.8v.9h-6.1v-.7zm22-1.1h-4.4l-.8 1.8h-1l3.5-7.9h1l3.5 7.9h-1l-.8-1.8zm-.4-.9l-1.8-4.2-1.8 4.2h3.6zm12.3-5.3h.9v4.4l4-4.4h1.2l-3.3 3.6 3.6 4.3h-1.2l-3-3.7-1.2 1.3v2.4h-.9v-7.9zm16.3 4.7v-4.6h.9v4.6c0 1.5 1 2.6 2.4 2.6s2.4-1.1 2.4-2.6v-4.6h.9v4.6c0 2-1.4 3.4-3.3 3.4s-3.3-1.4-3.3-3.4zm17.3-4.7h3.2c1.6 0 2.9 1.1 2.9 2.5s-1.3 2.5-2.9 2.5h-2.3v2.9h-.9v-7.9zm3 4.3c1.3 0 2.2-.6 2.2-1.7s-.9-1.7-2.2-1.7h-2.2v3.4h2.2zm12.8-.3c0-2.2 1.9-4.1 4.1-4.1 2.2 0 4.1 1.9 4.1 4.1s-1.8 4.1-4.1 4.1c-2.2 0-4.1-1.9-4.1-4.1zm7.2 0c0-1.8-1.4-3.3-3.1-3.3-1.7 0-3.2 1.5-3.2 3.3 0 1.8 1.4 3.3 3.2 3.3 1.7 0 3.1-1.5 3.1-3.3zm-2-6.3l.9.2-1.6 1.5h-.7l1.4-1.7zm12.4 2.3h1l2.2 6.4 2.1-6.4h1l2.1 6.4 2.2-6.4h1l-2.7 7.9h-.9l-2.2-6.8-2.2 6.8h-.9l-2.7-7.9zm-372-40.4c-9.1 19.2-12 19.2-13.8 19.2H79.3c-6.1 0-10.7-3.6-11.9-9.1 0-.2-3.5-17-4.4-21.8-.4-2.3-1.5-3.9-5.5-3.9-1.8 0-3.3-1.5-3.3-3.3s1.5-3.3 3.3-3.3c6.6 0 10.8 3.3 11.9 9.2.9 4.7 4.3 21.5 4.3 21.7.7 3.4 3.7 3.9 5.5 3.9h16.5c1.8-1.9 5.8-9.2 8.8-15.5.8-1.6 2.7-2.3 4.3-1.6 1.7.9 2.4 2.8 1.6 4.5zM77.1 74.5c-3 0-5.4 2.4-5.4 5.4 0 3 2.4 5.4 5.4 5.4s5.4-2.4 5.4-5.4c0-3-2.4-5.4-5.4-5.4zm19.5 0c-3 0-5.4 2.4-5.4 5.4 0 3 2.4 5.4 5.4 5.4s5.4-2.4 5.4-5.4c0-3-2.4-5.4-5.4-5.4zm3.3-36.9c0-.3-.2-.5-.3-.7-.2-.2-.4-.3-.7-.3-.3 0-8.5-.1-14.2 1-.4.1-.8.4-.9.8-.1.4 0 .9.3 1.2l3.4 3.4s-6.3 6.9-6.3 7.4c-.1.8.9 2.4 1.7 3.2.9.9 2.5 1.9 3.3 1.7.5-.1 7.4-6.4 7.4-6.4l3.5 3.5c.3.3.8.4 1.2.3.4-.1.8-.5.8-.9 1-5.6.8-13.9.8-14.2z" fill="#030104"/></svg>