<svg xmlns="http://www.w3.org/2000/svg" width="74.679" height="123"><path data-name="Path 36" d="M74.679 12.962v97.082c-.141.7-.321 1.4-.417 2.107a12.861 12.861 0 01-10.541 10.444c-.673.083-1.334.269-2 .408H12.959c-.667-.139-1.328-.319-2-.409A12.821 12.821 0 01.408 112.042c-.088-.672-.269-1.332-.407-2v-97.08c.138-.666.318-1.326.406-2A12.855 12.855 0 0110.848.417c.709-.1 1.407-.276 2.111-.417H61.72c.667.138 1.328.322 2 .406a12.853 12.853 0 0110.54 10.446c.096.71.278 1.405.419 2.11zm-8.725 48.537V13.412c0-3.01-1.664-4.67-4.663-4.684-1.171-.005-2.345-.048-3.511.032a1.172 1.172 0 00-.867.671c-.5 2.626-2.624 3.678-4.992 3.682q-14.6.023-29.2 0c-2.338-.005-4.441-1.057-4.9-3.628a.813.813 0 00-.974-.765c-1.17.036-2.342 0-3.513.011-2.955.016-4.6 1.657-4.6 4.624q-.006 48.142 0 96.283c0 2.943 1.677 4.638 4.595 4.639q23.989.009 47.977 0a5.661 5.661 0 001.619-.178c2.069-.627 3.034-2.115 3.034-4.616l-.005-47.987z" fill="#fd7100"/></svg>