<svg xmlns="http://www.w3.org/2000/svg" width="104.001" height="96"><g data-name="Inteligentny obiekt wektorowy"><g data-name="Group 3"><path data-name="Path 12" d="M103.424 38.941C86.692 72.96 81.248 72.96 78 72.96H46c-11.208 0-19.8-6.328-21.88-16.128-.064-.3-6.4-30.156-8.02-38.5-.8-4.09-2.82-6.816-10.1-6.816A5.881 5.881 0 010 5.76 5.881 5.881 0 016 0c12.08 0 19.856 5.76 21.9 16.22 1.6 8.252 7.92 38.008 7.984 38.312 1.276 6.013 6.888 6.912 10.12 6.912H76.42c3.268-3.372 10.716-16.364 16.152-27.422a6.119 6.119 0 017.988-2.749 5.658 5.658 0 012.864 7.668zM42 76.8a9.608 9.608 0 1010 9.6 9.8 9.8 0 00-10-9.6zm36 0a9.608 9.608 0 1010 9.6 9.8 9.8 0 00-10-9.6z" fill="#fd7100"/></g><path data-name="Path 13" d="M58.652 45.48a2.309 2.309 0 002.768 0c.4-.3 11.312-10.522 17.264-19.023a2.064 2.064 0 00.112-2.2 2.232 2.232 0 00-1.96-1.133h-8.9S67.064 6.643 66.5 5.88c-.824-1.129-4.228-1.9-6.464-1.9s-5.712.77-6.536 1.9c-.564.76-1.312 17.242-1.312 17.242h-9.02a2.25 2.25 0 00-1.968 1.131 2.08 2.08 0 00.112 2.2c5.952 8.51 16.944 18.727 17.34 19.027z"/></g></svg>